<svg width="38" height="36" viewBox="0 0 38 36" fill="none" xmlns="http://www.w3.org/2000/svg">
<g id="4ASSET_S&#195;&#141;MBOLO">
<path id="Vector" d="M29.5559 17.7405C30.6655 17.7405 31.7641 17.5188 32.7891 17.0882C33.8141 16.6576 34.7452 16.0265 35.5293 15.2309C36.3135 14.4353 36.9353 13.4909 37.3591 12.4516C37.783 11.4123 38.0008 10.2986 37.9997 9.17397C37.9997 6.90418 37.1101 4.72731 35.5266 3.12232C33.9431 1.51734 31.7953 0.615727 29.5559 0.615727C28.4464 0.61464 27.3475 0.835153 26.3221 1.26476C25.2968 1.69437 24.3651 2.32458 23.5801 3.1194C22.7952 3.91421 22.1724 4.85804 21.7475 5.89691C21.3227 6.93579 21.104 8.04939 21.104 9.17397C21.104 11.446 21.9945 13.6248 23.5795 15.2314C25.1646 16.8379 27.3144 17.7405 29.5559 17.7405Z" fill="#505FFF"/>
<path id="Vector_2" d="M9.02189 18.4771C7.91236 18.4771 6.81367 18.6987 5.78871 19.1293C4.76374 19.5599 3.83245 20.191 3.04828 20.9866C2.2641 21.7822 1.64233 22.7266 1.21847 23.7659C0.794617 24.8052 0.577057 25.919 0.578129 27.0436C0.578129 29.3134 1.46777 31.4901 3.05127 33.0951C4.63476 34.7001 6.78249 35.6018 9.02189 35.6018C10.1314 35.6029 11.2303 35.3824 12.2557 34.9528C13.281 34.5232 14.2128 33.8929 14.9977 33.0981C15.7826 32.3032 16.4052 31.3594 16.8301 30.3205C17.2549 29.2817 17.4736 28.1682 17.4736 27.0436C17.4736 24.7716 16.5831 22.5926 14.9981 20.9861C13.4131 19.3795 11.2635 18.4771 9.02189 18.4771Z" fill="#505FFF"/>
<path id="Vector_3" d="M24.3311 18.7986C18.9957 21.1222 16.173 26.563 18.0249 30.9372C19.8768 35.3115 25.718 36.9818 31.0779 34.6582C36.4378 32.3347 39.236 26.8938 37.3841 22.5113C35.5322 18.1288 29.6747 16.4751 24.3311 18.7986Z" fill="#505FFF"/>
<path id="Vector_4" d="M14.2107 17.4185C19.5542 15.095 22.3688 9.65403 20.5169 5.2798C18.665 0.905574 12.8319 -0.764735 7.46386 1.55881C2.09579 3.88236 -0.694275 9.32332 1.15762 13.7058C3.00952 18.0883 8.87523 19.7255 14.2107 17.4185Z" fill="#505FFF"/>
</g>
</svg>
