<svg width="33" height="33" viewBox="0 0 33 33" fill="none" xmlns="http://www.w3.org/2000/svg">
<g id="edit-light">
<path id="Vector" d="M20.9398 9.47341C21.2339 9.17932 21.7095 9.17932 22.0005 9.47341L23.3333 10.8062C23.6274 11.1003 23.6274 11.5759 23.3333 11.8669L21.6219 13.5845L19.2253 11.1879L20.9398 9.47341ZM18.5182 11.895L20.9148 14.2916L13.5499 21.6534C13.3121 21.8912 13.0211 22.0633 12.6989 22.1571L9.79543 23.0144L10.6496 20.111C10.7434 19.7887 10.9186 19.4977 11.1533 19.26L18.5182 11.895ZM22.7107 8.76633C22.0255 8.08115 20.9179 8.08115 20.2327 8.76633L10.4462 18.5497C10.0895 18.9064 9.82985 19.3444 9.68906 19.8262L8.57837 23.612C8.52518 23.7872 8.57524 23.978 8.70352 24.1063C8.8318 24.2346 9.02265 24.2846 9.19785 24.2314L12.9836 23.1176C13.4654 22.9768 13.9034 22.714 14.2601 22.3605L24.0435 12.5771C24.7287 11.8919 24.7287 10.7843 24.0435 10.0992L22.7107 8.76633Z" fill="#131E23"/>
</g>
</svg>
