<svg width="16" height="16" viewBox="0 0 16 16" fill="none" xmlns="http://www.w3.org/2000/svg">
<path id="Path" fill-rule="evenodd" clip-rule="evenodd" d="M15.4734 2.09995C15.9153 1.65812 15.9153 0.941779 15.4734 0.499952C15.0316 0.0581235 14.3153 0.0581234 13.8734 0.499951L8.27344 6.09995L2.67344 0.499951C2.23161 0.0581235 1.51527 0.0581235 1.07344 0.499951C0.63161 0.941779 0.63161 1.65812 1.07344 2.09995L6.67344 7.69995L1.07344 13.3C0.63161 13.7418 0.63161 14.4581 1.07344 14.9C1.51527 15.3418 2.23161 15.3418 2.67344 14.9L8.27344 9.29995L13.8734 14.9C14.3153 15.3418 15.0316 15.3418 15.4734 14.9C15.9153 14.4581 15.9153 13.7418 15.4734 13.3L9.87344 7.69995L15.4734 2.09995Z" fill="#6A6F77"/>
</svg>
