<svg width="27" height="13" viewBox="0 0 27 13" fill="none" xmlns="http://www.w3.org/2000/svg">
<path id="Vector" d="M26.3268 6.20643C26.4737 6.34707 26.5581 6.54396 26.5581 6.75022C26.5581 6.95649 26.4737 7.15025 26.3268 7.29401L20.8264 12.5444C20.5264 12.8319 20.0513 12.8194 19.7669 12.5194C19.4825 12.2194 19.4919 11.7443 19.7919 11.4599L23.936 7.50028H1.6817C1.26604 7.50028 0.931641 7.16588 0.931641 6.75022C0.931641 6.33457 1.26604 6.00017 1.6817 6.00017H23.936L19.7888 2.04364C19.4888 1.75611 19.4794 1.28421 19.7638 0.984184C20.0482 0.684163 20.5232 0.674788 20.8233 0.959183L26.3237 6.20956L26.3268 6.20643Z" fill="white"/>
</svg>
