<svg width="25" height="25" viewBox="0 0 25 25" fill="none" xmlns="http://www.w3.org/2000/svg">
<g id="trash-light ">
<path id="Vector" d="M10.765 5.97559H13.6557C13.8275 5.97559 13.9869 6.06309 14.0807 6.20996L14.5588 6.97559H9.86504L10.3432 6.20996C10.4338 6.06309 10.5963 5.97559 10.7682 5.97559H10.765ZM15.74 6.97559L14.9307 5.68184C14.6557 5.24121 14.1744 4.97559 13.6588 4.97559H10.765C10.2494 4.97559 9.76816 5.24121 9.49316 5.68184L8.68379 6.97559H7.21504H6.21191H5.71191C5.43691 6.97559 5.21191 7.20059 5.21191 7.47559C5.21191 7.75059 5.43691 7.97559 5.71191 7.97559H6.28379L7.08066 19.1193C7.15254 20.1662 8.02441 20.9756 9.07441 20.9756H15.3494C16.3994 20.9756 17.2682 20.1662 17.3432 19.1193L18.14 7.97559H18.7119C18.9869 7.97559 19.2119 7.75059 19.2119 7.47559C19.2119 7.20059 18.9869 6.97559 18.7119 6.97559H18.2119H17.2088H15.74ZM17.14 7.97559L16.3463 19.0475C16.3088 19.5693 15.8744 19.9756 15.3494 19.9756H9.07441C8.54941 19.9756 8.11504 19.5693 8.07754 19.0475L7.28691 7.97559H17.1369H17.14Z" fill="white"/>
</g>
</svg>
