<svg width="33" height="33" viewBox="0 0 33 33" fill="none" xmlns="http://www.w3.org/2000/svg">
<g id="trash-light ">
<path id="Vector" d="M15.1107 9.25244H18.0014C18.1732 9.25244 18.3326 9.33994 18.4264 9.48682L18.9045 10.2524H14.2107L14.6889 9.48682C14.7795 9.33994 14.942 9.25244 15.1139 9.25244H15.1107ZM20.0857 10.2524L19.2764 8.95869C19.0014 8.51807 18.5201 8.25244 18.0045 8.25244H15.1107C14.5951 8.25244 14.1139 8.51807 13.8389 8.95869L13.0295 10.2524H11.5607H10.5576H10.0576C9.78262 10.2524 9.55762 10.4774 9.55762 10.7524C9.55762 11.0274 9.78262 11.2524 10.0576 11.2524H10.6295L11.4264 22.3962C11.4982 23.4431 12.3701 24.2524 13.4201 24.2524H19.6951C20.7451 24.2524 21.6139 23.4431 21.6889 22.3962L22.4857 11.2524H23.0576C23.3326 11.2524 23.5576 11.0274 23.5576 10.7524C23.5576 10.4774 23.3326 10.2524 23.0576 10.2524H22.5576H21.5545H20.0857ZM21.4857 11.2524L20.692 22.3243C20.6545 22.8462 20.2201 23.2524 19.6951 23.2524H13.4201C12.8951 23.2524 12.4607 22.8462 12.4232 22.3243L11.6326 11.2524H21.4826H21.4857Z" fill="#131E23"/>
</g>
</svg>
