<svg width="57" height="13" viewBox="0 0 57 13" fill="none" xmlns="http://www.w3.org/2000/svg">
<path id="Vector" d="M55.8553 6.15394C56.0022 6.29458 56.0866 6.49147 56.0866 6.69773C56.0866 6.904 56.0022 7.09776 55.8553 7.24152L50.355 12.4919C50.0549 12.7794 49.5799 12.7669 49.2955 12.4669C49.0111 12.1669 49.0205 11.6918 49.3205 11.4074L53.4646 7.44779H1.21026C0.794605 7.44779 0.460205 7.11339 0.460205 6.69773C0.460205 6.28208 0.794605 5.94768 1.21026 5.94768H53.4646L49.3174 1.99115C49.0174 1.70362 49.008 1.23172 49.2924 0.931694C49.5768 0.631673 50.0518 0.622297 50.3518 0.906693L55.8522 6.15707L55.8553 6.15394Z" fill="white"/>
</svg>
